<?xml version="1.0" encoding="UTF-8"?>
<svg xmlns="http://www.w3.org/2000/svg" xmlns:xlink="http://www.w3.org/1999/xlink" width="375pt" height="374.999991pt" viewBox="0 0 375 374.999991" version="1.2">
<defs>
<clipPath id="clip1">
  <path d="M 40 15 L 355 15 L 355 353 L 40 353 Z M 40 15 "/>
</clipPath>
<clipPath id="clip2">
  <path d="M -126.042969 56.6875 L 297.15625 -104.898438 L 458.746094 318.300781 L 35.546875 479.886719 Z M -126.042969 56.6875 "/>
</clipPath>
<clipPath id="clip3">
  <path d="M -126.042969 56.6875 L 297.15625 -104.898438 L 458.746094 318.300781 L 35.546875 479.886719 Z M -126.042969 56.6875 "/>
</clipPath>
<clipPath id="clip4">
  <path d="M 49 202 L 191 202 L 191 343 L 49 343 Z M 49 202 "/>
</clipPath>
<clipPath id="clip5">
  <path d="M -126.042969 56.6875 L 297.15625 -104.898438 L 458.746094 318.300781 L 35.546875 479.886719 Z M -126.042969 56.6875 "/>
</clipPath>
<clipPath id="clip6">
  <path d="M -126.042969 56.6875 L 297.15625 -104.898438 L 458.746094 318.300781 L 35.546875 479.886719 Z M -126.042969 56.6875 "/>
</clipPath>
<clipPath id="clip7">
  <path d="M 113 49 L 146 49 L 146 258 L 113 258 Z M 113 49 "/>
</clipPath>
<clipPath id="clip8">
  <path d="M -126.042969 56.6875 L 297.15625 -104.898438 L 458.746094 318.300781 L 35.546875 479.886719 Z M -126.042969 56.6875 "/>
</clipPath>
<clipPath id="clip9">
  <path d="M -126.042969 56.6875 L 297.15625 -104.898438 L 458.746094 318.300781 L 35.546875 479.886719 Z M -126.042969 56.6875 "/>
</clipPath>
<clipPath id="clip10">
  <path d="M 89 255 L 299 255 L 299 278 L 89 278 Z M 89 255 "/>
</clipPath>
<clipPath id="clip11">
  <path d="M -126.042969 56.6875 L 297.15625 -104.898438 L 458.746094 318.300781 L 35.546875 479.886719 Z M -126.042969 56.6875 "/>
</clipPath>
<clipPath id="clip12">
  <path d="M -126.042969 56.6875 L 297.15625 -104.898438 L 458.746094 318.300781 L 35.546875 479.886719 Z M -126.042969 56.6875 "/>
</clipPath>
<clipPath id="clip13">
  <path d="M 86 25 L 189 25 L 189 129 L 86 129 Z M 86 25 "/>
</clipPath>
<clipPath id="clip14">
  <path d="M -126.042969 56.6875 L 297.15625 -104.898438 L 458.746094 318.300781 L 35.546875 479.886719 Z M -126.042969 56.6875 "/>
</clipPath>
<clipPath id="clip15">
  <path d="M -126.042969 56.6875 L 297.15625 -104.898438 L 458.746094 318.300781 L 35.546875 479.886719 Z M -126.042969 56.6875 "/>
</clipPath>
<clipPath id="clip16">
  <path d="M 242 209 L 345 209 L 345 312 L 242 312 Z M 242 209 "/>
</clipPath>
<clipPath id="clip17">
  <path d="M -126.042969 56.6875 L 297.15625 -104.898438 L 458.746094 318.300781 L 35.546875 479.886719 Z M -126.042969 56.6875 "/>
</clipPath>
<clipPath id="clip18">
  <path d="M -126.042969 56.6875 L 297.15625 -104.898438 L 458.746094 318.300781 L 35.546875 479.886719 Z M -126.042969 56.6875 "/>
</clipPath>
</defs>
<g id="surface1">
<g clip-path="url(#clip1)" clip-rule="nonzero">
<g clip-path="url(#clip2)" clip-rule="nonzero">
<g clip-path="url(#clip3)" clip-rule="nonzero">
<path style=" stroke:none;fill-rule:nonzero;fill:rgb(49.409485%,85.099792%,34.118652%);fill-opacity:1;" d="M 342.8125 225.296875 C 326.714844 202.910156 297.511719 194.125 271.78125 203.949219 C 266.894531 205.816406 262.246094 208.332031 257.957031 211.40625 C 244.769531 220.890625 236.058594 234.9375 233.433594 250.96875 C 233.226562 252.222656 233.074219 253.464844 232.949219 254.722656 L 198.738281 256.722656 C 196.515625 245.734375 191.992188 235.238281 185.246094 225.863281 C 172.808594 208.554688 154.402344 197.441406 134.46875 193.828125 L 140.703125 137.496094 C 146.8125 137.160156 152.953125 135.886719 158.90625 133.613281 C 163.792969 131.75 168.445312 129.242188 172.730469 126.15625 C 185.921875 116.683594 194.632812 102.636719 197.246094 86.609375 C 199.871094 70.578125 196.09375 54.492188 186.617188 41.300781 C 170.523438 18.917969 141.320312 10.140625 115.582031 19.96875 C 110.691406 21.832031 106.042969 24.34375 101.753906 27.425781 C 74.535156 46.988281 68.3125 85.054688 87.871094 112.292969 C 96.308594 124.03125 108.359375 132.023438 121.621094 135.546875 L 115.300781 192.699219 C 107.390625 193.195312 99.460938 194.855469 91.777344 197.789062 C 85.347656 200.246094 79.226562 203.539062 73.59375 207.597656 C 56.242188 220.070312 44.785156 238.5625 41.332031 259.644531 C 37.886719 280.75 42.851562 301.910156 55.328125 319.257812 C 76.503906 348.714844 114.929688 360.273438 148.789062 347.34375 C 155.230469 344.886719 161.347656 341.582031 166.996094 337.53125 C 184.335938 325.058594 195.796875 306.574219 199.25 285.484375 C 199.777344 282.261719 200.082031 279.054688 200.210938 275.84375 L 234.042969 273.863281 C 235.800781 281.835938 239.160156 289.449219 244.070312 296.273438 C 260.160156 318.664062 289.371094 327.433594 315.101562 317.609375 C 319.988281 315.746094 324.640625 313.238281 328.925781 310.152344 C 342.117188 300.679688 350.824219 286.625 353.441406 270.605469 C 356.066406 254.574219 352.285156 238.488281 342.8125 225.296875 "/>
</g>
</g>
</g>
<g clip-path="url(#clip4)" clip-rule="nonzero">
<g clip-path="url(#clip5)" clip-rule="nonzero">
<g clip-path="url(#clip6)" clip-rule="nonzero">
<path style=" stroke:none;fill-rule:nonzero;fill:rgb(49.409485%,85.099792%,34.118652%);fill-opacity:1;" d="M 177.464844 231.46875 C 200.167969 263.03125 192.964844 307.042969 161.386719 329.738281 C 129.8125 352.445312 85.808594 345.242188 63.113281 313.664062 C 40.40625 282.089844 47.617188 238.089844 79.1875 215.382812 C 110.765625 192.683594 154.765625 199.890625 177.464844 231.46875 "/>
</g>
</g>
</g>
<g clip-path="url(#clip7)" clip-rule="nonzero">
<g clip-path="url(#clip8)" clip-rule="nonzero">
<g clip-path="url(#clip9)" clip-rule="nonzero">
<path style=" stroke:none;fill-rule:nonzero;fill:rgb(49.409485%,85.099792%,34.118652%);fill-opacity:1;" d="M 123.074219 253.113281 L 145.027344 54.886719 C 145.3125 52.253906 143.414062 49.886719 140.792969 49.585938 C 138.148438 49.300781 135.785156 51.195312 135.488281 53.832031 L 113.546875 252.050781 C 113.261719 254.679688 115.148438 257.050781 117.78125 257.347656 C 120.421875 257.636719 122.789062 255.742188 123.074219 253.113281 "/>
</g>
</g>
</g>
<g clip-path="url(#clip10)" clip-rule="nonzero">
<g clip-path="url(#clip11)" clip-rule="nonzero">
<g clip-path="url(#clip12)" clip-rule="nonzero">
<path style=" stroke:none;fill-rule:nonzero;fill:rgb(49.409485%,85.099792%,34.118652%);fill-opacity:1;" d="M 94.625 277.226562 L 293.722656 265.558594 C 296.363281 265.40625 298.386719 263.140625 298.222656 260.5 C 298.066406 257.855469 295.800781 255.835938 293.15625 255.992188 L 94.0625 267.65625 C 91.417969 267.8125 89.398438 270.078125 89.550781 272.722656 C 89.707031 275.363281 91.980469 277.382812 94.625 277.226562 "/>
</g>
</g>
</g>
<g clip-path="url(#clip13)" clip-rule="nonzero">
<g clip-path="url(#clip14)" clip-rule="nonzero">
<g clip-path="url(#clip15)" clip-rule="nonzero">
<path style=" stroke:none;fill-rule:nonzero;fill:rgb(49.409485%,85.099792%,34.118652%);fill-opacity:1;" d="M 178.835938 46.898438 C 195.335938 69.867188 190.109375 101.867188 167.136719 118.371094 C 144.167969 134.886719 112.164062 129.65625 95.652344 106.6875 C 79.152344 83.71875 84.382812 51.722656 107.351562 35.210938 C 130.320312 18.699219 162.320312 23.929688 178.835938 46.898438 "/>
</g>
</g>
</g>
<g clip-path="url(#clip16)" clip-rule="nonzero">
<g clip-path="url(#clip17)" clip-rule="nonzero">
<g clip-path="url(#clip18)" clip-rule="nonzero">
<path style=" stroke:none;fill-rule:nonzero;fill:rgb(49.409485%,85.099792%,34.118652%);fill-opacity:1;" d="M 335.027344 230.890625 C 351.542969 253.859375 346.304688 285.863281 323.332031 302.367188 C 300.359375 318.882812 268.367188 313.636719 251.855469 290.679688 C 235.34375 267.710938 240.582031 235.707031 263.550781 219.191406 C 286.519531 202.679688 318.515625 207.921875 335.027344 230.890625 "/>
</g>
</g>
</g>
</g>
</svg>
